<svg width="59" height="46" viewBox="0 0 59 46" fill="none" xmlns="http://www.w3.org/2000/svg">
<path d="M37.4727 35.7836C37.4253 35.7836 37.3779 35.8073 37.3305 35.8073C19.7899 38.9836 5.63889 35.1199 4.54853 27.203C3.43446 19.286 16.7795 10.3024 34.3201 7.14981C37.5675 6.55722 40.7201 6.22537 43.7067 6.10685C43.7304 6.10685 43.7304 6.05945 43.7067 6.05945C39.3453 5.82241 34.5098 6.10685 29.4609 7.03129C12.0863 10.1602 -1.06919 19.4282 0.0685754 27.7245C1.23005 36.0207 16.2581 40.1925 33.6327 37.0636C35.2683 36.7792 35.8846 36.3999 37.449 36.0207C37.4727 35.9022 37.4727 35.8311 37.4727 35.7836Z" fill="white"/>
<path d="M58.4737 4.02106C58.4025 4.09217 58.3077 4.13958 58.2129 4.18699C57.9048 4.35291 57.5729 4.44773 57.2411 4.54254C56.6959 4.68476 56.127 4.82698 55.5818 4.9692C55.25 5.04031 54.9181 5.11142 54.5626 5.18254C54.5152 5.20624 54.4441 5.20624 54.3967 5.22994C54.3019 5.25365 54.1833 5.27735 54.0648 5.30105C53.8989 5.32476 53.733 5.37216 53.567 5.39587C52.7848 6.43882 51.4811 8.14547 50.8411 9.0225C49.8693 10.3262 49.1345 9.89953 49.1345 9.89953L50.8648 5.89364C50.6752 5.91734 50.5093 5.96475 50.3197 5.98845C49.7982 6.08327 49.2767 6.17808 48.7552 6.22549C48.5419 6.24919 48.3286 6.2729 48.1152 6.2966C47.6886 6.34401 47.2619 6.39141 46.8115 6.43882C46.4323 6.48623 46.0293 6.53364 45.6501 6.36771C45.3419 6.24919 45.1523 5.96475 44.9864 5.70401C44.773 5.37216 44.5597 5.06402 44.3701 4.73217C43.9434 4.04477 43.493 3.35736 43.0427 2.66996C43.0427 2.64626 43.019 2.62256 43.019 2.62256C43.019 2.62256 43.256 2.52774 43.2797 2.52774C43.3982 2.50404 43.5405 2.48034 43.6827 2.50404C44.2753 2.55145 44.5834 2.95441 44.939 3.33366C45.1523 3.5707 45.3419 3.80773 45.6027 3.99736C45.9819 4.2581 46.3375 4.18699 46.7641 4.13958C48.0915 3.97366 49.3952 3.73662 50.7226 3.49959C50.77 3.49959 50.8174 3.47588 50.8411 3.47588L47.9967 0.204798C47.9967 0.204798 48.9449 -0.364086 49.893 0.394426C50.8648 1.17664 50.8174 1.15294 53.0693 3.07292C53.4011 3.00181 53.733 2.95441 54.0411 2.88329C54.61 2.78848 55.1552 2.66996 55.7241 2.57515C55.9374 2.52774 56.1507 2.50404 56.3641 2.52774C56.9803 2.55145 57.5492 2.71737 58.0233 3.14403C58.2129 3.30996 58.3788 3.49959 58.4737 3.73662C58.4974 3.78403 58.4974 3.83144 58.5211 3.87884C58.5448 3.92625 58.5211 3.99736 58.4737 4.02106Z" fill="white"/>
<path d="M10.6165 37.6802L7.27429 46.0001H9.47873C10.7587 46.0001 11.8965 45.2179 12.3705 44.009L12.4891 43.6771L13.9113 39.9083L14.4328 38.5098C13.1054 38.2727 11.8254 38.012 10.6165 37.6802ZM25.8815 33.4609L19.0787 16.5366L13.4846 30.4743L12.2283 33.6269C13.3424 34.0535 14.5513 34.4565 15.8787 34.7646L16.9927 31.8728L19.0787 26.421L21.5912 32.9869L22.6579 35.7839C23.8431 35.855 25.0756 35.9024 26.3556 35.9024C26.5215 35.9024 26.6638 35.9024 26.8297 35.9024L25.8815 33.4609ZM28.0386 38.8416C26.6638 38.9601 25.3127 39.055 23.9616 39.0787L24.2697 39.8846L25.7393 43.6534L25.8342 43.9379C26.2845 45.1705 27.4697 46.0001 28.7734 46.0001H30.9304L28.0386 38.8416Z" fill="white"/>
</svg>
